<?xml version="1.0" encoding="UTF-8"?>
<!DOCTYPE svg PUBLIC "-//W3C//DTD SVG 1.1//EN" "http://www.w3.org/Graphics/SVG/1.1/DTD/svg11.dtd">
<svg xmlns="http://www.w3.org/2000/svg" version="1.1" width="512px" height="512px" style="shape-rendering:geometricPrecision; text-rendering:geometricPrecision; image-rendering:optimizeQuality; fill-rule:evenodd; clip-rule:evenodd" xmlns:xlink="http://www.w3.org/1999/xlink">
<g><path style="opacity:1" fill="#f6df1d" d="M -0.5,-0.5 C 239.5,-0.5 479.5,-0.5 719.5,-0.5C 719.5,239.5 719.5,479.5 719.5,719.5C 479.5,719.5 239.5,719.5 -0.5,719.5C -0.5,479.5 -0.5,239.5 -0.5,-0.5 Z"/></g>
<g><path style="opacity:1" fill="#000000" d="M 249.5,287.5 C 253.853,288.319 257.353,290.652 260,294.5C 291.01,329.009 322.177,363.342 353.5,397.5C 386.287,360.876 419.287,324.376 452.5,288C 453.793,287.51 455.127,287.343 456.5,287.5C 456.5,356.167 456.5,424.833 456.5,493.5C 442.833,493.5 429.167,493.5 415.5,493.5C 415.173,456.098 415.673,418.765 417,381.5C 410.719,390.782 404.052,399.782 397,408.5C 382.962,423.536 369.296,438.869 356,454.5C 352.17,456.26 349.17,455.26 347,451.5C 335.667,438.833 324.333,426.167 313,413.5C 304.618,403.452 296.618,393.119 289,382.5C 290.205,419.465 290.705,456.465 290.5,493.5C 276.833,493.5 263.167,493.5 249.5,493.5C 249.5,424.833 249.5,356.167 249.5,287.5 Z"/></g>
<g><path style="opacity:1" fill="#000000" d="M 543.5,287.5 C 567.765,284.09 588.598,290.757 606,307.5C 609.03,311.698 611.863,316.032 614.5,320.5C 603.833,327.5 593.167,334.5 582.5,341.5C 574.194,325.675 561.527,320.508 544.5,326C 535.623,332.072 533.123,340.239 537,350.5C 539.128,353.63 541.628,356.463 544.5,359C 557.962,365.713 571.629,372.046 585.5,378C 625.138,397.577 636.305,427.744 619,468.5C 607.744,483.884 592.577,492.717 573.5,495C 540.727,500.358 512.893,491.192 490,467.5C 486.571,463.228 483.738,458.562 481.5,453.5C 492.536,446.634 503.703,439.968 515,433.5C 529.696,457.51 550.196,464.343 576.5,454C 587.429,444.253 588.096,433.92 578.5,423C 558.922,412.808 539.255,402.808 519.5,393C 497.062,376.12 489.229,353.953 496,326.5C 501.74,309.093 513.24,297.259 530.5,291C 534.999,289.961 539.332,288.794 543.5,287.5 Z"/></g>
<g><path style="opacity:1" fill="#000000" d="M 168.5,289.5 C 182.5,289.5 196.5,289.5 210.5,289.5C 210.667,338.168 210.5,386.834 210,435.5C 208.152,475.18 187.319,495.514 147.5,496.5C 118.508,496.354 97.5082,483.521 84.5,458C 95.6673,450.915 107.001,444.082 118.5,437.5C 121.463,442.594 124.796,447.428 128.5,452C 139.054,459.863 150.054,460.53 161.5,454C 165.836,448.662 168.003,442.495 168,435.5C 168.5,386.834 168.667,338.168 168.5,289.5 Z"/></g>
<g><path style="opacity:1" fill="#fefffe" d="M 491.5,513.5 C 498.508,513.334 505.508,513.5 512.5,514C 524.984,517.151 531.651,525.151 532.5,538C 531.651,550.849 524.984,558.849 512.5,562C 505.508,562.5 498.508,562.666 491.5,562.5C 491.5,546.167 491.5,529.833 491.5,513.5 Z"/></g>
<g><path style="opacity:1" fill="#fefffe" d="M 540.5,513.5 C 551.5,513.5 562.5,513.5 573.5,513.5C 573.5,516.5 573.5,519.5 573.5,522.5C 565.833,522.5 558.167,522.5 550.5,522.5C 550.5,527.5 550.5,532.5 550.5,537.5C 557.167,537.5 563.833,537.5 570.5,537.5C 570.5,540.5 570.5,543.5 570.5,546.5C 563.833,546.5 557.167,546.5 550.5,546.5C 550.5,548.833 550.5,551.167 550.5,553.5C 558.5,553.5 566.5,553.5 574.5,553.5C 574.5,556.5 574.5,559.5 574.5,562.5C 563.167,562.5 551.833,562.5 540.5,562.5C 540.5,546.167 540.5,529.833 540.5,513.5 Z"/></g>
<g><path style="opacity:1" fill="#fefffe" d="M 579.5,513.5 C 583.167,513.5 586.833,513.5 590.5,513.5C 594.591,523.358 598.424,533.358 602,543.5C 605.279,533.609 609.113,523.942 613.5,514.5C 616.833,513.167 620.167,513.167 623.5,514.5C 616.663,530.834 609.329,546.834 601.5,562.5C 593.775,546.32 586.442,529.986 579.5,513.5 Z"/></g>
<g><path style="opacity:1" fill="#f6df1d" d="M 501.5,522.5 C 517.673,521.176 524.173,528.509 521,544.5C 519.402,549.099 516.235,551.932 511.5,553C 508.183,553.498 504.85,553.665 501.5,553.5C 501.5,543.167 501.5,532.833 501.5,522.5 Z"/></g>
</svg>
