<?xml version="1.0" standalone="no"?>
<!DOCTYPE svg PUBLIC "-//W3C//DTD SVG 20010904//EN"
 "http://www.w3.org/TR/2001/REC-SVG-20010904/DTD/svg10.dtd">
<svg version="1.0" xmlns="http://www.w3.org/2000/svg"
 width="720.000000pt" height="720.000000pt" viewBox="0 0 720.000000 720.000000"
 preserveAspectRatio="xMidYMid meet">
<metadata>
Created by potrace 1.14, written by Peter Selinger 2001-2017
</metadata>
<g transform="translate(0.000000,720.000000) scale(0.100000,-0.100000)"
fill="#000000" stroke="none">
<path d="M2500 3290 l0 -1030 205 0 205 0 0 353 c-1 193 -5 442 -10 552 -4
110 -7 201 -6 202 1 2 46 -55 98 -125 144 -190 512 -597 541 -597 17 0 67 50
197 195 261 291 291 326 375 440 43 58 74 94 70 80 -3 -14 -9 -267 -12 -562
l-6 -538 207 0 206 0 0 1031 0 1030 -22 -3 c-15 -2 -187 -186 -511 -548 -269
-300 -492 -545 -496 -545 -4 0 -231 246 -506 548 -315 346 -505 547 -517 547
-17 0 -18 -35 -18 -1030z"/>
<path d="M5373 4301 c-279 -71 -450 -300 -429 -576 13 -168 56 -267 165 -376
89 -89 169 -138 376 -229 293 -130 344 -166 363 -257 17 -79 -2 -138 -62 -191
-47 -41 -121 -62 -221 -62 -170 0 -272 60 -397 232 -12 16 -28 9 -178 -79 -91
-52 -167 -97 -168 -99 -13 -11 67 -123 138 -195 73 -73 100 -92 190 -137 172
-84 338 -113 531 -93 199 21 343 84 450 199 103 110 142 215 142 382 1 311
-137 475 -553 656 -310 136 -360 177 -360 299 0 93 51 154 147 176 105 24 220
-24 284 -119 18 -26 33 -48 35 -50 1 -3 309 191 322 203 16 15 -102 161 -172
212 -119 88 -200 113 -386 119 -118 3 -158 0 -217 -15z"/>
<path d="M1690 3583 c0 -395 -4 -746 -9 -780 -19 -130 -71 -182 -191 -191
-117 -8 -199 40 -266 156 -15 26 -28 49 -30 51 -2 2 -80 -42 -174 -98 l-170
-103 22 -41 c79 -155 225 -270 407 -319 100 -27 296 -29 391 -4 222 58 351
185 413 405 20 74 21 97 25 859 l3 782 -210 0 -211 0 0 -717z"/>
</g>
</svg>
